<?xml version="1.0" standalone="no"?>
<!DOCTYPE svg PUBLIC "-//W3C//DTD SVG 20010904//EN"
 "http://www.w3.org/TR/2001/REC-SVG-20010904/DTD/svg10.dtd">
<svg version="1.0" xmlns="http://www.w3.org/2000/svg"
 width="512.000000pt" height="512.000000pt" viewBox="0 0 512.000000 512.000000"
 preserveAspectRatio="xMidYMid meet">

<g transform="translate(0.000000,512.000000) scale(0.100000,-0.100000)"
fill="#000000" stroke="none">
<path d="M4191 5103 c-11 -10 -79 -146 -151 -302 l-130 -284 0 -992 0 -992
-105 53 c-161 80 -315 107 -479 84 -119 -17 -148 -41 -171 -143 -18 -79 -60
-181 -73 -175 -4 1 -57 21 -117 42 l-110 39 0 56 c0 31 -4 68 -8 82 -8 25 -7
26 42 32 104 12 199 85 247 192 26 57 28 67 32 264 l5 204 32 33 c37 36 45 76
45 214 0 87 1 89 34 122 40 40 52 102 43 228 -7 107 -24 135 -103 170 l-64 29
0 44 c0 125 -110 401 -172 433 -51 26 -108 -8 -108 -64 0 -14 15 -50 34 -81
47 -76 110 -271 88 -271 -4 0 -144 54 -312 119 l-305 119 -3 192 -2 191 37 -7
c57 -10 184 -53 219 -75 82 -50 166 13 123 92 -16 31 -159 95 -265 120 -79 18
-114 21 -226 16 -154 -5 -217 -20 -343 -81 -267 -129 -457 -396 -482 -680 l-6
-68 -63 -28 c-77 -35 -94 -63 -101 -170 -9 -126 3 -188 43 -228 33 -33 34 -35
34 -122 0 -138 8 -178 45 -214 l32 -33 5 -204 c4 -197 6 -207 32 -264 48 -107
143 -180 247 -192 49 -6 50 -7 42 -32 -4 -14 -8 -51 -8 -82 l0 -56 -110 -39
c-60 -21 -113 -41 -117 -42 -13 -6 -56 97 -74 175 -22 99 -52 126 -158 142
-102 15 -156 14 -261 -4 -219 -39 -419 -168 -544 -353 -93 -138 -132 -265
-136 -446 l-3 -129 -41 -71 c-22 -39 -54 -112 -71 -163 -45 -135 -52 -263 -48
-858 3 -576 1 -560 81 -613 l41 -27 2040 0 2041 0 50 27 c60 32 114 87 146
148 24 45 24 48 24 361 l0 316 -32 63 c-32 60 -33 68 -33 175 l0 113 153 3
c212 5 236 22 245 178 7 138 -3 198 -43 238 l-33 33 -151 0 -151 0 0 625 0
626 -25 24 c-13 14 -36 25 -50 25 -14 0 -37 -11 -50 -25 l-25 -24 0 -626 0
-625 -50 0 -50 0 0 1433 c-1 1538 2 1455 -51 1476 -30 11 -83 -8 -93 -34 -3
-9 -6 -658 -6 -1441 l0 -1424 -50 0 -50 0 0 1406 0 1407 76 166 c42 91 81 176
88 189 12 22 19 10 99 -166 l87 -189 0 -635 c0 -628 0 -636 21 -662 28 -36 80
-36 108 0 21 26 21 34 21 679 l0 652 -130 284 c-72 156 -140 292 -151 302 -12
9 -31 17 -44 17 -13 0 -32 -8 -44 -17z m-1973 -554 l-3 -191 -308 -120 c-170
-66 -310 -118 -312 -116 -7 7 24 128 47 181 85 203 267 361 480 417 40 10 79
19 86 19 10 1 12 -41 10 -190z m449 -465 c191 -74 383 -149 426 -165 l77 -30
0 -70 0 -69 -870 0 -870 0 0 69 0 69 118 45 c64 26 254 100 422 166 168 66
315 120 327 120 11 1 178 -60 370 -135z m421 -590 l-3 -97 -393 -148 -393
-148 -62 24 c-34 13 -177 67 -317 120 -140 53 -290 110 -332 127 l-78 29 0 95
0 94 790 0 791 0 -3 -96z m-1323 -353 l150 -57 3 -168 2 -168 -113 4 c-105 3
-116 5 -149 30 -60 46 -68 75 -68 257 0 123 3 161 13 160 6 0 80 -26 162 -58z
m1245 -101 c0 -183 -7 -212 -66 -256 -35 -27 -44 -29 -151 -32 l-113 -4 2 168
3 168 150 57 c83 32 156 58 163 58 9 1 12 -37 12 -159z m-710 -85 c38 0 80 10
138 32 l82 32 0 -134 0 -135 -220 0 -220 0 0 135 0 134 83 -32 c57 -22 99 -32
137 -32z m393 -411 l17 -47 -198 -205 c-109 -113 -203 -207 -209 -209 -5 -2
-100 90 -211 205 l-201 209 17 47 17 46 375 0 376 0 17 -46z m-1405 -29 c2 -2
10 -29 19 -62 8 -32 30 -90 48 -130 85 -183 222 -320 412 -410 l76 -36 -7 -68
c-3 -37 -12 -91 -18 -121 -17 -73 -98 -232 -121 -236 -10 -2 -45 22 -89 63
-271 251 -666 295 -979 111 -40 -24 -77 -41 -81 -38 -12 13 -38 104 -49 175
-21 135 8 288 79 417 43 79 175 214 252 257 66 38 162 71 239 83 49 7 210 4
219 -5z m2317 -10 c85 -22 192 -78 253 -131 l52 -46 0 -330 0 -330 -22 5 c-13
3 -61 18 -108 32 -270 82 -572 10 -788 -190 -43 -40 -79 -65 -89 -63 -24 4
-98 148 -118 227 -9 36 -19 96 -22 132 l-6 66 78 37 c235 111 403 314 465 563
10 38 13 42 48 46 61 8 193 -2 257 -18z m-1561 -386 c97 -103 188 -191 202
-198 34 -15 79 -14 112 3 15 8 54 43 87 77 32 35 113 120 179 189 l119 124 96
-34 c53 -18 112 -40 131 -48 l35 -14 -55 -50 c-63 -57 -143 -106 -215 -133
-71 -26 -91 -41 -109 -80 -17 -36 -21 -145 -7 -227 7 -43 5 -50 -18 -71 -42
-39 -185 -142 -246 -177 l-56 -32 -77 47 c-42 25 -116 77 -163 115 l-86 68 8
48 c4 27 8 83 8 124 1 107 -16 136 -105 175 -104 45 -173 88 -234 143 -50 45
-53 51 -35 58 114 45 223 83 236 81 9 -1 96 -86 193 -188z m-904 -539 c83 -13
190 -48 190 -62 0 -6 -14 -34 -32 -62 -38 -62 -48 -134 -25 -188 10 -23 38
-55 76 -84 52 -40 59 -49 50 -66 -6 -10 -39 -67 -75 -125 -56 -94 -64 -112
-64 -157 0 -60 28 -112 79 -151 l35 -25 -161 0 c-187 0 -251 14 -349 78 -97
64 -159 147 -194 261 -17 54 -20 93 -20 262 l0 199 43 27 c89 57 232 100 337
102 25 0 74 -4 110 -9z m2395 -133 c0 -120 3 -147 18 -170 36 -55 58 -62 224
-65 l153 -4 0 -79 c0 -72 -3 -82 -31 -122 -23 -33 -33 -61 -38 -107 -7 -61
-11 -66 -61 -112 -110 -102 -194 -128 -414 -128 l-160 0 35 25 c51 39 79 91
79 151 0 45 -8 63 -75 174 -41 69 -71 127 -67 130 87 69 122 105 132 136 18
55 8 122 -28 180 -18 28 -32 56 -32 62 0 18 161 64 250 71 13 1 15 -21 15
-142z m-3066 -13 c16 -12 19 -35 24 -201 6 -209 17 -267 72 -379 41 -84 138
-193 217 -244 l54 -35 58 -200 c32 -110 61 -206 63 -213 4 -10 -58 -12 -303
-10 l-309 3 -3 588 c-2 617 0 650 43 754 l16 37 25 -44 c14 -24 33 -50 43 -56z
m1631 -41 c47 -31 111 -70 143 -87 l57 -29 58 29 c59 31 192 118 274 180 l46
35 37 -69 c45 -87 97 -137 155 -153 71 -18 116 -1 196 76 l67 64 28 -45 c16
-24 29 -50 29 -57 -1 -13 -861 -670 -885 -675 -9 -2 -78 44 -155 102 -144 109
-174 122 -212 92 -27 -20 -37 -58 -24 -88 6 -16 72 -73 162 -141 163 -124 197
-138 270 -118 26 7 155 100 374 267 184 140 338 257 342 260 12 8 131 -199
122 -213 -10 -13 -876 -673 -884 -673 -8 0 -874 660 -884 673 -5 8 14 48 54
115 l62 102 30 -22 c88 -67 123 -88 145 -88 34 0 73 42 73 79 0 35 -29 61
-243 221 -70 52 -127 100 -127 107 0 7 13 33 29 57 l28 45 67 -64 c80 -77 125
-94 196 -76 58 16 110 66 155 153 l37 69 46 -35 c26 -20 85 -61 132 -93z
m2680 47 l0 -70 -545 0 -545 0 0 70 0 70 545 0 545 0 0 -70z m-400 -296 c0
-56 -2 -65 -16 -60 -9 3 -74 6 -145 6 l-129 0 0 60 0 60 145 0 145 0 0 -66z
m6 -234 c18 -12 42 -40 53 -64 20 -39 21 -60 21 -302 0 -249 -1 -262 -22 -304
-17 -33 -35 -51 -68 -68 -39 -20 -59 -22 -181 -22 -118 0 -140 3 -160 18 -28
24 -21 46 26 73 59 35 60 105 1 140 -56 33 -57 68 -5 89 34 15 49 37 49 76 0
29 -34 74 -56 74 -22 0 -36 37 -24 60 6 11 16 20 22 20 23 0 58 44 58 72 0 41
-14 63 -49 78 -35 14 -45 34 -31 60 9 17 25 20 113 23 152 6 215 0 253 -23z
m-502 -340 c10 -21 9 -32 -6 -65 -23 -51 -23 -111 0 -156 17 -34 17 -37 0 -75
-10 -21 -18 -58 -18 -81 l0 -43 -111 0 c-84 0 -110 3 -106 13 2 6 31 102 63
213 l58 200 45 30 c45 29 46 29 54 9 5 -11 14 -31 21 -45z m-2535 -71 l236 0
229 -175 229 -174 -463 2 -463 3 -48 165 c-27 91 -49 171 -49 179 0 11 10 12
46 7 26 -3 153 -6 283 -7z m2187 -166 l-52 -178 -464 -3 -463 -2 228 172 227
173 247 5 c135 3 265 7 287 8 l42 2 -52 -177z"/>
<path d="M1849 3961 c-16 -16 -29 -39 -29 -51 0 -12 13 -35 29 -51 l29 -29
422 0 422 0 29 29 c16 16 29 39 29 51 0 12 -13 35 -29 51 l-29 29 -422 0 -422
0 -29 -29z"/>
<path d="M1659 3541 c-21 -22 -29 -39 -29 -66 0 -27 8 -44 29 -66 36 -35 61
-37 98 -5 23 20 28 32 28 71 0 39 -5 51 -28 71 -37 32 -62 30 -98 -5z"/>
<path d="M1980 3557 c-39 -20 -51 -54 -48 -134 3 -59 8 -77 25 -95 29 -28 77
-28 106 1 19 19 22 32 22 106 0 71 -3 87 -20 104 -28 27 -56 33 -85 18z"/>
<path d="M2270 3557 c-42 -21 -51 -52 -48 -174 3 -100 5 -115 25 -134 29 -29
77 -29 106 0 20 20 22 31 22 146 0 111 -2 126 -20 144 -28 27 -56 33 -85 18z"/>
<path d="M2560 3557 c-39 -20 -51 -54 -48 -134 3 -59 8 -77 25 -95 29 -28 77
-28 106 1 19 19 22 32 22 106 0 71 -3 87 -20 104 -28 27 -56 33 -85 18z"/>
<path d="M2860 3557 c-78 -39 -54 -170 31 -170 45 0 74 34 74 88 0 68 -52 108
-105 82z"/>
</g>
</svg>
